<svg xmlns="http://www.w3.org/2000/svg" fill="#29003e" viewBox="0 0 64 64" aria-hidden="true"><path fill-rule="evenodd" clip-rule="evenodd" d="M58 51.3846V16.9231C57.9973 14.5451 56.0588 12.6181 53.6667 12.6154H49.3333V8.30769C49.3306 5.92975 47.3921 4.00272 45 4H40.6667C38.2746 4.00272 36.3361 5.92975 36.3333 8.30769V12.6154H27.6667V8.30769C27.6639 5.92975 25.7254 4.00272 23.3333 4H19C16.6079 4.00272 14.6694 5.92975 14.6667 8.30769V12.6154H10.3333C7.94123 12.6181 6.00273 14.5451 6 16.9231V51.3846C6.00547 56.1405 9.88247 59.9946 14.6667 60H49.3333C54.1175 59.9946 57.9945 56.1405 58 51.3846ZM44.9999 16.923H40.6666V8.30766H44.9999V16.923ZM23.3333 16.923H18.9999V8.30766H23.3333V16.923ZM49.3334 16.9231H53.6668V24.9852H10.3334V16.9231H14.6668C14.6695 19.301 16.608 21.228 19.0001 21.2307H23.3334C25.7255 21.228 27.664 19.301 27.6668 16.9231H36.3334C36.3362 19.301 38.2747 21.228 40.6668 21.2307H45.0001C47.3922 21.228 49.3307 19.301 49.3334 16.9231ZM10.3334 28.9852V51.3846C10.3362 53.7625 12.2747 55.6896 14.6668 55.6923H49.3334C51.7255 55.6896 53.664 53.7625 53.6668 51.3846V28.9852H10.3334Z"></path><path d="M14.6949 35.3069C14.6949 34.2023 15.5957 33.3069 16.7068 33.3069H21.378C22.4891 33.3069 23.3899 34.2024 23.3899 35.3069V36.7091C23.3899 37.8137 22.4891 38.7091 21.378 38.7091H16.7068C15.5957 38.7091 14.6949 37.8137 14.6949 36.7091V35.3069Z"></path><path d="M27.7374 35.3069C27.7374 34.2023 28.6381 33.3069 29.7493 33.3069H34.4204C35.5316 33.3069 36.4323 34.2024 36.4323 35.3069V36.7091C36.4323 37.8137 35.5316 38.7091 34.4204 38.7091H29.7493C28.6381 38.7091 27.7374 37.8137 27.7374 36.7091V35.3069Z"></path><path d="M40.7798 35.3069C40.7798 34.2023 41.6806 33.3069 42.7917 33.3069H47.4629C48.574 33.3069 49.4748 34.2024 49.4748 35.3069V36.7091C49.4748 37.8137 48.574 38.7091 47.4629 38.7091H42.7917C41.6806 38.7091 40.7798 37.8137 40.7798 36.7091V35.3069Z"></path><path d="M14.6949 46.1114C14.6949 45.0068 15.5957 44.1114 16.7068 44.1114H21.378C22.4891 44.1114 23.3899 45.0068 23.3899 46.1114V47.5136C23.3899 48.6181 22.4891 49.5136 21.378 49.5136H16.7068C15.5957 49.5136 14.6949 48.6181 14.6949 47.5136V46.1114Z"></path><path d="M27.7374 46.1114C27.7374 45.0068 28.6381 44.1114 29.7493 44.1114H34.4204C35.5316 44.1114 36.4323 45.0068 36.4323 46.1114V47.5136C36.4323 48.6181 35.5316 49.5136 34.4204 49.5136H29.7493C28.6381 49.5136 27.7374 48.6181 27.7374 47.5136V46.1114Z"></path><path d="M40.7798 46.1114C40.7798 45.0068 41.6806 44.1114 42.7917 44.1114H47.4629C48.574 44.1114 49.4748 45.0068 49.4748 46.1114V47.5136C49.4748 48.6181 48.574 49.5136 47.4629 49.5136H42.7917C41.6806 49.5136 40.7798 48.6181 40.7798 47.5136V46.1114Z"></path></svg>