<svg xmlns="http://www.w3.org/2000/svg" fill="#000" viewBox="0 0 64 64" aria-hidden="true"><path fill-rule="evenodd" clip-rule="evenodd" d="M51.365 48.3012C51.9123 48.8485 52.1261 49.6462 51.9258 50.3939C51.7254 51.1415 51.1415 51.7254 50.3939 51.9258C49.6462 52.1261 48.8485 51.9123 48.3012 51.365L32.4998 35.5636L16.6984 51.365C16.1511 51.9123 15.3534 52.1261 14.6058 51.9258C13.8581 51.7254 13.2742 51.1415 13.0739 50.3939C12.8735 49.6462 13.0873 48.8485 13.6346 48.3012L29.436 32.4998L13.6346 16.6984C13.0873 16.1511 12.8735 15.3534 13.0739 14.6058C13.2742 13.8581 13.8581 13.2742 14.6058 13.0739C15.3534 12.8735 16.1511 13.0873 16.6984 13.6346L32.4998 29.436L48.3012 13.6346C49.1473 12.7885 50.519 12.7885 51.365 13.6346C52.2111 14.4806 52.2111 15.8523 51.365 16.6984L35.5636 32.4998L51.365 48.3012Z"></path></svg>